<?xml version="1.0" standalone="no"?>
<!DOCTYPE svg PUBLIC "-//W3C//DTD SVG 20010904//EN"
 "http://www.w3.org/TR/2001/REC-SVG-20010904/DTD/svg10.dtd">
<svg version="1.0" xmlns="http://www.w3.org/2000/svg"
 width="96.000000pt" height="96.000000pt" viewBox="0 0 96.000000 96.000000"
 preserveAspectRatio="xMidYMid meet">
<metadata>
Created by potrace 1.14, written by Peter Selinger 2001-2017
</metadata>
<g transform="translate(0.000000,96.000000) scale(0.100000,-0.100000)"
fill="#000000" stroke="none">
<path d="M111 781 c-11 -11 -23 -31 -26 -43 -3 -13 -5 -139 -3 -280 3 -231 5
-259 21 -275 16 -17 46 -18 378 -18 l360 0 20 25 c18 24 19 41 17 297 -3 246
-5 274 -21 290 -16 16 -48 18 -372 21 -344 3 -355 2 -374 -17z m689 -341 l0
-200 -320 0 -320 0 0 200 0 200 320 0 320 0 0 -200z"/>
<path d="M266 564 c-10 -27 -7 -33 35 -79 l42 -45 -42 -45 c-54 -59 -53 -95 5
-95 21 0 134 117 134 140 0 29 -114 140 -144 140 -13 0 -27 -7 -30 -16z"/>
<path d="M492 348 c-6 -6 -12 -20 -12 -29 0 -32 25 -40 125 -37 80 2 100 6
109 21 8 12 8 22 0 35 -9 14 -29 18 -110 20 -69 2 -103 -1 -112 -10z"/>
</g>
</svg>
